<svg width="126" height="126" viewBox="0 0 126 126" fill="none" xmlns="http://www.w3.org/2000/svg">
<path d="M53.0526 9.94737C58.5464 4.45359 67.4536 4.45359 72.9474 9.94737L116.053 53.0526C121.546 58.5464 121.546 67.4536 116.053 72.9474L72.9474 116.053C67.4536 121.546 58.5464 121.546 53.0526 116.053L9.94737 72.9474C4.45359 67.4536 4.45359 58.5464 9.94737 53.0526L53.0526 9.94737Z" fill="url(#paint0_linear_660_3043)"/>
<mask id="mask0_660_3043" style="mask-type:luminance" maskUnits="userSpaceOnUse" x="35" y="25" width="56" height="57">
<path d="M55.5745 33.0315C55.5745 33.0634 55.5798 33.0944 55.5798 33.1263C55.5798 40.383 49.6974 46.2655 42.4407 46.2655L42.4451 46.2761C42.4327 46.2761 42.4221 46.2743 42.4124 46.2743C38.4119 46.2743 35.1689 49.5173 35.1689 53.5177C35.1689 57.5173 38.4119 60.7594 42.4124 60.7594C46.412 60.7594 49.6549 57.5173 49.6549 53.5177C49.6549 53.4912 49.6513 53.4664 49.6504 53.4398L49.6549 53.4415C49.6549 46.2903 55.3575 40.4849 62.4609 40.2882C62.5831 40.2944 62.7045 40.3068 62.8286 40.3068C62.8605 40.3068 62.8915 40.3024 62.9225 40.3024C70.1792 40.3024 76.0616 46.1848 76.0616 53.4415H76.0625C76.0616 53.4664 76.0581 53.4903 76.0581 53.516C76.0581 53.547 76.0634 53.578 76.0634 53.6099C76.0634 60.8666 70.181 66.7499 62.9243 66.7499L62.9278 66.7606C62.9163 66.7606 62.9065 66.7579 62.895 66.7579C58.8954 66.7579 55.6525 70.0026 55.6525 74.0022C55.6525 78.0018 58.8954 81.2447 62.895 81.2447C66.8955 81.2447 70.1376 78.0018 70.1376 74.0022C70.1376 73.9756 70.134 73.9499 70.134 73.9242L70.1376 73.926C70.1376 66.6737 75.9978 60.7939 83.2413 60.7558C83.2607 60.7558 83.2811 60.7594 83.3006 60.7594C86.5657 60.7594 89.3239 58.5983 90.2286 55.6301C90.4412 54.9478 90.5555 54.223 90.5555 53.4708C90.5555 49.4712 87.3135 46.2291 83.3139 46.2291C83.2873 46.2291 83.2616 46.2318 83.2359 46.2318L83.2377 46.2291C75.9863 46.2291 70.1065 40.368 70.0684 33.1254C70.0684 33.1042 70.0711 33.0856 70.0711 33.0652C70.0711 32.3067 69.9541 31.5775 69.7379 30.8908C68.8253 27.9368 66.0724 25.7908 62.8179 25.7908C58.8175 25.7899 55.5745 29.0319 55.5745 33.0315Z" fill="white"/>
</mask>
<g mask="url(#mask0_660_3043)">
<path d="M7.44238 53.517L62.8626 -1.90234L118.283 53.517L62.8626 108.938L7.44238 53.517Z" fill="white"/>
</g>
<mask id="mask1_660_3043" style="mask-type:luminance" maskUnits="userSpaceOnUse" x="35" y="46" width="56" height="56">
<path d="M55.5878 53.6625C55.5878 53.6882 55.5914 53.7139 55.5914 53.7396L55.5878 53.7378C55.5878 60.9892 49.7266 66.869 42.4841 66.9071C42.4637 66.9071 42.4451 66.9053 42.4239 66.9053C39.1597 66.9053 36.4014 69.0655 35.4968 72.0355C35.2841 72.7169 35.1689 73.4408 35.1689 74.1939C35.1689 78.1935 38.4119 81.4365 42.4124 81.4365C42.438 81.4365 42.4629 81.432 42.4886 81.432L42.4877 81.4365C49.7399 81.4365 55.6197 87.2968 55.6578 94.5402C55.6569 94.5588 55.6543 94.58 55.6543 94.5986C55.6543 95.3562 55.7712 96.0872 55.9874 96.7739C56.9009 99.728 59.653 101.874 62.9074 101.874C66.907 101.874 70.1491 98.631 70.1491 94.6314H70.15C70.15 94.5986 70.1455 94.5694 70.1455 94.5366C70.1455 87.2808 76.028 81.3975 83.2847 81.3975L83.2811 81.3877C83.2909 81.3877 83.3024 81.3886 83.3139 81.3886C87.3135 81.3886 90.5555 78.1466 90.5555 74.147C90.5555 70.1456 87.3135 66.9027 83.3139 66.9027C79.3125 66.9027 76.0705 70.1456 76.0705 74.147C76.0705 74.1727 76.074 74.1975 76.074 74.2241L76.0705 74.2214C76.0705 81.3736 70.3679 87.178 63.2645 87.3756C63.1413 87.3694 63.02 87.357 62.8968 87.357C62.8649 87.357 62.8348 87.3623 62.8029 87.3623C55.5462 87.3623 49.6629 81.4781 49.6629 74.2223C49.6629 74.1975 49.6673 74.1736 49.6673 74.1479C49.6673 74.1177 49.6629 74.0867 49.6629 74.0548C49.6629 66.7981 55.5444 60.9148 62.8011 60.9148L62.7976 60.9042C62.8082 60.9042 62.8197 60.9059 62.8295 60.9059C66.83 60.9059 70.0729 57.6639 70.0729 53.6634C70.0729 49.6629 66.83 46.4209 62.8295 46.4209C58.8299 46.42 55.5878 49.662 55.5878 53.6625Z" fill="white"/>
</mask>
<g mask="url(#mask1_660_3043)">
<path d="M7.44238 74.1477L62.8626 18.7266L118.283 74.1477L62.8626 129.568L7.44238 74.1477Z" fill="white"/>
</g>
<defs>
<linearGradient id="paint0_linear_660_3043" x1="59.6387" y1="9.23881" x2="118.192" y2="70.4681" gradientUnits="userSpaceOnUse">
<stop stop-color="#2EBBEC"/>
<stop offset="1" stop-color="#60C3AD"/>
</linearGradient>
</defs>
</svg>
