<svg width="101" height="101" viewBox="0 0 101 101" fill="none" xmlns="http://www.w3.org/2000/svg">
<mask id="mask0_103_2206" style="mask-type:alpha" maskUnits="userSpaceOnUse" x="0" y="0" width="101" height="101">
<path d="M70.6889 50.3224V50.5971C70.6889 58.8926 77.4923 65.6499 85.8445 65.6499C88.8313 65.6499 91.5969 64.7709 93.92 63.3425C97.9025 60.8154 100.613 56.5303 100.945 51.586C100.945 51.2564 101 50.9267 101 50.5971C101 44.3343 97.1835 39.0054 91.7076 36.698C89.8823 35.9289 87.891 35.5443 85.8445 35.5443C77.5476 35.5443 70.8549 42.1368 70.6889 50.3224ZM49.6703 0.109874C41.6501 0.549372 35.3445 7.14183 35.3445 15.1627V15.4373C35.3445 22.5792 31.5832 28.842 25.9414 32.4129C22.8439 34.3907 19.138 35.4894 15.1555 35.4894C7.02464 35.4894 0.442497 41.8072 0 49.7731C0 50.0477 0 50.2675 0 50.5422C0 50.8718 0 51.1465 0.0553122 51.4761C0.553122 59.3321 7.13527 65.595 15.1555 65.595C17.9211 65.595 20.5761 66.1443 23.0099 67.1881C30.2004 70.2646 35.3445 77.4064 35.3445 85.7569C35.4551 93.6678 41.7607 100.095 49.6703 100.535C49.9469 100.535 50.2234 100.535 50.5 100.535C53.4869 100.535 56.2525 99.656 58.5756 98.1727C62.8346 95.4808 65.6555 90.8111 65.6555 85.4273C65.6555 79.1644 61.839 73.8355 56.3631 71.5282C54.5378 70.759 52.6019 70.3745 50.5 70.3745C39.3269 70.3745 30.2557 61.3648 30.2557 50.2675C30.2557 39.1702 39.3269 30.1605 50.5 30.1605C53.4869 30.1605 56.2525 29.2815 58.5756 27.7982C62.8346 25.1063 65.6555 20.4366 65.6555 15.0528C65.6555 8.78994 61.839 3.46104 56.3631 1.15368C54.8143 0.494434 53.0997 0.109874 51.3297 0C51.0531 0 50.7766 0 50.5 0C50.2234 0.109874 49.9469 0.109874 49.6703 0.109874Z" fill="black"/>
</mask>
<g mask="url(#mask0_103_2206)">
<path d="M9.08718 -42.4377L294.719 6.12671L269.995 149.403L-15.582 100.838L9.08718 -42.4377Z" fill="url(#paint0_linear_103_2206)"/>
</g>
<defs>
<linearGradient id="paint0_linear_103_2206" x1="-124.179" y1="8.6428" x2="418.239" y2="102.123" gradientUnits="userSpaceOnUse">
<stop offset="0.253125" stop-color="#F5F5F5"/>
<stop offset="1" stop-color="#CCCCCB"/>
</linearGradient>
</defs>
</svg>
